<?xml version="1.0" encoding="utf-8"?>
<!-- Generator: Adobe Illustrator 19.0.0, SVG Export Plug-In . SVG Version: 6.00 Build 0)  -->
<svg version="1.1" id="Layer_1" xmlns="http://www.w3.org/2000/svg" xmlns:xlink="http://www.w3.org/1999/xlink" x="0px" y="0px"
	 viewBox="0 -89 300 378" style="enable-background:new 0 -89 300 378;" xml:space="preserve">
<style type="text/css">
	.st0{display:none;fill:#7B7B7B;}
	.st1{fill:#FFFFFF;}
	.st2{fill:#516F90;}
</style>
<g>
	<path class="st0" d="M2.1,289c0-126,0-252,0-378c100,0,200,0,300,0c0,126,0,251.9,0,378C202.1,289,102.1,289,2.1,289z M297-85
		c-97,0-193.9,0-290.8,0c0,123,0,245.9,0,368.9c97,0,193.9,0,290.8,0C297,160.9,297,38,297-85z"/>
	<path class="st1" d="M297-85c0,123,0,245.9,0,368.9c-97,0-193.9,0-290.8,0c0-123,0-245.9,0-368.9C103.1-85,200-85,297-85z
		 M226.6-43.4c0,0.1,0-0.1,0-0.3c-0.3-2.4-1.8-3.6-4.2-3.5c-1.7,0.1-3.4,0.3-5-0.1c-4.4-1-8.8-2.1-13.2-3.3
		c-5.5-1.6-10.7-1.6-15.4,2.1c-2,1.6-7.5,1.3-8.7-1.5c-1.1-2.5-2.2-5.2-2.6-7.8c-0.5-3.6-2.3-6.1-5.3-7.8c-1.9-1.1-4.1-1.9-6.5-0.9
		c-1.7,0.7-3.6,1.3-5.4,1.6c-3.5,0.5-6.4-1.1-9.2-3c-3.9-2.7-8.3-1.3-10.5,3c-1,2-2.5,4.2-4.3,5.3c-5.1,3.2-8.2,7.8-10.9,13
		c-1.5,2.8-3.4,5-6.4,6.1c-2.8,1-5.7,2-8.6,2.5c-2,0.4-4.1,1.1-6.4,0.4c-3-0.9-6.2-0.6-9.1,1.1c-3,1.8-5.9,3.8-8.9,5.6
		c-5,2.9-10.2,4.7-16.1,3.4c-4-0.8-6.1-2.9-6.2-7c0-0.9,0.2-1.8,0.3-2.7c0.2-1.6-1.1-2.9-2.3-2.1c-1.5,1-2.8,0.4-4.2,0.5
		c-1.4,0.1-2-0.6-2.3-1.8c-0.3-1.1-0.8-2.2-1.3-3.3c-0.4-1-1.1-1.2-2.1-0.5c-1.3,0.9-2.7,1.7-4.1,2.4c-3,1.5-5.9,0.4-6.9-1.2
		c-0.9-1.5-1.5-3.3-1.7-5.1c-0.3-3-1.7-4.2-4.5-3.2c-2.5,0.9-5,1.8-7.3,2.9c-3.2,1.5-4.4,4.4-3.3,7.8c0.7,2.3,2.8,3,4.6,4
		c3.3,1.7,6,4.1,5.7,8.1c-0.3,3.2,1,5.6,2.5,8.2c2.5,4.5,2.4,8.1-1.6,11.7c-0.7,0.7-1.5,1.3-2.1,2.1c-2.5,2.9-2.1,4-0.5,6.1
		c3.3,4.1,3.5,8,0.3,12.2c-0.3,0.4-0.5,0.8-0.7,1.3c-1.1,2.1-1,2.6,1,3.8c0.5,0.3,1,0.6,1.5,0.7c3.1,0.5,6.3,1.2,9.4,1.4
		c3.2,0.2,5.6,2.1,6,5.3c0.2,1.6,0.8,2.8,2.3,3.5c0.5,0.3,1.1,0.6,1.6,1c3.9,3,6.7,6.7,5.1,12.5c-1.1,4.1-1.8,8.3-2.5,12.4
		c-0.6,3.9-0.8,7.8-1.4,11.6c-0.5,3.6-1.1,7.3-1.6,10.9c-0.8,5.3-1.6,10.5-2.3,15.8c-0.4,3.2-0.8,6.5-0.7,9.7
		c0.1,3.7,0.5,7.5,1.1,11.1c0.4,2.3,1,4.7,1.9,6.9c2.2,5.5,4.6,10.8,6.9,16.3c0.8,1.8,1.4,3.7,2,5.5c1,3.1,1.9,6.3,2.8,9.5
		c0.7,2.4,1.2,4.9,1.7,7.3c0.4,1.9,0.9,3.8,1.3,5.7c0.6,3.5,1.1,7,1.7,10.5c0.6,3.6,1.1,7.2,1.7,10.8c0.4,2.3,0.7,4.6,1.2,6.9
		c0.6,2.9,1.5,5.7,1.8,8.6c0.5,4.5-1.8,6.3-6.1,5c-0.6-0.2-1.3,0-2,0c-2.5,0-4.3,1.6-5.8,3.3c-1.5,1.8-4,3.3-3.2,6.2
		c0.3,1.2,1,2.3,1.8,3.3c1.6,2.2,1.7,4.1,0.4,6.5c-1.5,2.8-3.9,5.1-4.4,8.4c-0.2,1.7-0.6,3.4-1.1,5c-0.8,2.6-1.9,5.1-2.6,7.6
		c-0.7,2.5,0.4,5.3,2.8,6.1c3.3,1.1,4.2,3.6,4.1,6.5c-0.1,3.4,0.9,6.2,3.4,8.6c0.8,0.8,1.5,1.6,2.7,0.9c1.1-0.7,0.8-1.7,0.4-2.6
		c-1.1-2.3-1.9-4.6-1.3-7.3c0.3-1.4,0.4-2.9,0.9-4.3c1.2-3.2,2.1-6.8,6.6-6.8c0.3,0,0.6-0.2,0.9-0.3c3.4-0.3,6.7-1,10.1-0.8
		c2.8,0.1,5.6,1.1,8.3,2.1c2.6,0.9,4.8,0.4,7.2-1c1.6-0.9,3.4-1.9,5.1-1.8c3.2,0.1,6.4,0.3,9.3-0.9c2.4-1,4.6-2.3,6.9-3.6
		c0.9-0.5,0.9-1.2,0.4-2.2c-0.6-1.3,0.5-4.5,1.6-5c5.2-2,10.5-1.7,15.6,0.4c4.6,1.9,8.6,4.8,12,8.4c2.4,2.5,4.8,5,7.4,7.7
		c1.1-3.4,2.7-6.2,5.8-7.7c2.1-1,4.3-1.6,6.3-2.6c1.6-0.8,3.1-0.7,4.6-0.3c8.3,2,14.7,6.9,20,13.4c4.1,5.1,7,10.9,9.8,16.9
		c0.6,1.4,1.5,1.7,2.7,1.4c2.1-0.4,4.3-0.9,6.4-1.4c3-0.7,3.6-2.7,1.8-5.2c-2.5-3.5-3.3-7.2-1.2-11.2c2.4-4.5,5-8.9,7.4-13.4
		c2-3.7,3.7-7.5,3.2-11.9c-0.3-2.4,0-4.6,1.3-6.9c1.6-2.7,2.8-5.8,3.7-8.8c1.2-3.7,2-7.6,2.9-11.4c0.7-3.2,1.3-6.3,1.9-9.5
		c1-5.1,1.4-10.2,2.9-15.1c1.8-6,4.5-11.8,6.6-17.8c1.2-3.5,2-7,2.9-10.6c1-4.2,1.9-8.3,2.8-12.5c0.8-3.6,1.8-7.1,2.3-10.8
		c0.3-2.3-0.1-4.6,0-6.9c0-1.4,0.6-2.8,0.6-4.1c0-5.6-0.1-11.1-0.2-16.7c0-1.8-0.1-3.5-0.1-5.3c-0.1-2.1-0.3-4.3-0.1-6.4
		c0.4-5.2,0.8-10.5,1.4-15.7c0.5-4.3,2.2-6.3,6.4-6.5c1.7-0.1,2.2-1,2.7-2.5c0.7-2.2,1.4-4.5,2.6-6.4c1.8-2.8,4.1-5.3,6.1-8.1
		c0.3-0.4,0.4-1.2,0.3-1.8c-0.1-0.9-0.7-1.8-0.7-2.7c0-0.4,0.8-1,1.3-1.1c0.7-0.1,1.6,0.1,2.3,0.3c1.4,0.6,2.1,0,2.5-1.3
		c0.6-1.8,1.1-3.6,1.8-5.4c1.7-4.7,4.1-8.9,8.2-12c1.4-1,2.5-2.4,3.5-3.8c1.4-2,0.6-5.7-1.5-6.7c-1.4-0.6-2.9-1-4.4-1.1
		c-2.9-0.2-5.8-0.1-8.8-0.2c-1.6-0.1-3.3-0.2-4.9-0.4c-3.4-0.5-6.8-0.9-10.1-1.8c-3.6-1.1-6.6-3.5-9.4-6.1c-2.5-2.3-5.3-4.5-8.2-6.2
		c-3.2-1.9-6.6-3.6-9-6.6c-1.4-1.8-3-3.4-4.5-5.1c-0.9-1-0.8-1.7,0.4-2.3c1-0.5,2-1,2.8-1.7c0.7-0.6,1.3-1.4,1.5-2.2
		c0.9-4.1,1.7-8.2,2.6-12.2c0.7-3-0.1-5.7-1.8-8.1c-0.3-0.4-0.8-0.6-1.3-0.7c-1.3-0.2-2.6-0.3-3.9-0.5
		C227.6-43.5,227.2-43.4,226.6-43.4z"/>
	<path class="st2" d="M226.6-43.4c0.5,0,0.9,0,1.3,0c1.3,0.1,2.6,0.3,3.9,0.5c0.5,0.1,1,0.3,1.3,0.7c1.7,2.4,2.5,5.1,1.8,8.1
		c-0.9,4.1-1.6,8.2-2.6,12.2c-0.2,0.8-0.9,1.6-1.5,2.2c-0.8,0.7-1.8,1.2-2.8,1.7c-1.2,0.6-1.3,1.3-0.4,2.3c1.6,1.7,3.1,3.3,4.5,5.1
		c2.4,3,5.7,4.7,9,6.6c2.9,1.7,5.7,3.9,8.2,6.2c2.8,2.6,5.7,5,9.4,6.1c3.2,1,6.7,1.3,10.1,1.8c1.6,0.3,3.3,0.4,4.9,0.4
		c2.9,0.1,5.9,0,8.8,0.2c1.5,0.1,3.1,0.5,4.4,1.1c2,0.9,2.8,4.7,1.5,6.7c-1,1.4-2.1,2.8-3.5,3.8c-4.2,3.1-6.5,7.3-8.2,12
		c-0.7,1.8-1.2,3.6-1.8,5.4c-0.4,1.3-1.1,1.8-2.5,1.3c-0.7-0.3-1.5-0.5-2.3-0.3c-0.5,0.1-1.3,0.7-1.3,1.1c0,0.9,0.6,1.8,0.7,2.7
		c0.1,0.6,0,1.4-0.3,1.8c-2,2.7-4.3,5.2-6.1,8.1c-1.2,1.9-1.9,4.2-2.6,6.4c-0.5,1.5-0.9,2.4-2.7,2.5c-4.1,0.1-5.9,2.2-6.4,6.5
		c-0.6,5.2-1.1,10.5-1.4,15.7c-0.2,2.1,0.1,4.3,0.1,6.4c0,1.8,0.1,3.5,0.1,5.3c0.1,5.6,0.2,11.1,0.2,16.7c0,1.4-0.6,2.7-0.6,4.1
		c-0.1,2.3,0.4,4.7,0,6.9c-0.5,3.6-1.5,7.2-2.3,10.8c-0.9,4.2-1.8,8.4-2.8,12.5c-0.9,3.6-1.7,7.2-2.9,10.6c-2.1,6-4.8,11.7-6.6,17.8
		c-1.5,4.9-1.9,10.1-2.9,15.1c-0.6,3.2-1.2,6.4-1.9,9.5c-0.9,3.8-1.7,7.7-2.9,11.4c-1,3-2.1,6.1-3.7,8.8c-1.3,2.3-1.6,4.5-1.3,6.9
		c0.5,4.4-1.2,8.2-3.2,11.9c-2.4,4.5-5,8.9-7.4,13.4c-2.1,4-1.3,7.7,1.2,11.2c1.8,2.5,1.1,4.6-1.8,5.2c-2.1,0.5-4.3,1-6.4,1.4
		c-1.3,0.3-2.1,0-2.7-1.4c-2.7-5.9-5.6-11.8-9.8-16.9c-5.3-6.5-11.7-11.4-20-13.4c-1.5-0.4-3-0.5-4.6,0.3c-2,1-4.2,1.6-6.3,2.6
		c-3.1,1.5-4.7,4.2-5.8,7.7c-2.6-2.7-5-5.2-7.4-7.7c-3.5-3.6-7.4-6.6-12-8.4c-5.1-2-10.3-2.4-15.6-0.4c-1.1,0.4-2.2,3.7-1.6,5
		c0.5,0.9,0.5,1.7-0.4,2.2c-2.3,1.2-4.5,2.6-6.9,3.6c-3,1.2-6.1,1.1-9.3,0.9c-1.7-0.1-3.5,0.9-5.1,1.8c-2.3,1.3-4.5,1.9-7.2,1
		c-2.7-0.9-5.5-1.9-8.3-2c-3.3-0.2-6.7,0.5-10.1,0.8c-0.3,0-0.6,0.3-0.9,0.3c-4.5,0-5.5,3.5-6.6,6.8c-0.5,1.4-0.6,2.9-0.9,4.3
		c-0.6,2.6,0.2,5,1.3,7.3c0.4,0.9,0.8,1.9-0.4,2.6c-1.2,0.7-1.9-0.1-2.7-0.9c-2.5-2.3-3.5-5.1-3.4-8.6c0.1-2.9-0.8-5.4-4.1-6.5
		c-2.4-0.8-3.5-3.7-2.8-6.1c0.8-2.6,1.8-5.1,2.6-7.6c0.5-1.6,0.9-3.3,1.1-5c0.4-3.4,2.9-5.6,4.4-8.4c1.3-2.4,1.1-4.3-0.4-6.5
		c-0.7-1-1.4-2.1-1.8-3.3c-0.8-2.9,1.7-4.5,3.2-6.2c1.5-1.7,3.2-3.3,5.8-3.3c0.7,0,1.4-0.1,2,0c4.3,1.2,6.6-0.5,6.1-5
		c-0.3-2.9-1.3-5.7-1.8-8.6c-0.5-2.3-0.8-4.6-1.2-6.9c-0.6-3.6-1.1-7.2-1.7-10.8c-0.5-3.5-1.1-7-1.7-10.5c-0.3-1.9-0.8-3.8-1.3-5.7
		c-0.6-2.4-1.1-4.9-1.7-7.3c-0.9-3.2-1.8-6.4-2.8-9.5c-0.6-1.9-1.2-3.7-2-5.5c-2.3-5.4-4.7-10.8-6.9-16.3c-0.9-2.2-1.6-4.5-1.9-6.9
		c-0.6-3.7-1-7.4-1.1-11.1c-0.1-3.2,0.3-6.5,0.7-9.7c0.7-5.3,1.5-10.5,2.3-15.8c0.5-3.6,1.2-7.2,1.6-10.9c0.5-3.9,0.8-7.8,1.4-11.6
		c0.7-4.2,1.4-8.4,2.5-12.4c1.6-5.9-1.1-9.5-5.1-12.5c-0.5-0.4-1-0.7-1.6-1c-1.5-0.7-2.1-1.9-2.3-3.5c-0.3-3.2-2.7-5.1-6-5.3
		c-3.2-0.2-6.3-0.9-9.4-1.4c-0.5-0.1-1-0.4-1.5-0.7c-2-1.3-2.1-1.8-1-3.8c0.2-0.4,0.5-0.9,0.7-1.3c3.1-4.2,3-8.1-0.3-12.2
		c-1.7-2.1-2.1-3.2,0.5-6.1c0.6-0.7,1.4-1.4,2.1-2.1c4-3.6,4.1-7.3,1.6-11.7c-1.5-2.6-2.8-5-2.5-8.2c0.3-4-2.4-6.3-5.7-8.1
		c-1.8-1-3.9-1.6-4.6-4c-1-3.3,0.2-6.3,3.3-7.8c2.4-1.1,4.9-2.1,7.3-2.9c2.8-1,4.2,0.2,4.5,3.2c0.2,1.8,0.8,3.6,1.7,5.1
		c1,1.6,4,2.7,6.9,1.2c1.4-0.7,2.8-1.5,4.1-2.4c1-0.7,1.6-0.5,2.1,0.5c0.5,1.1,0.9,2.1,1.3,3.3c0.4,1.2,0.9,1.9,2.3,1.8
		c1.4-0.1,2.8,0.5,4.2-0.5c1.2-0.8,2.5,0.5,2.3,2.1c-0.1,0.9-0.4,1.8-0.3,2.7c0.2,4,2.3,6.1,6.2,7c5.9,1.3,11.1-0.6,16.1-3.4
		c3-1.7,5.9-3.8,8.9-5.6c2.8-1.7,6-2,9.1-1.1c2.3,0.7,4.3,0,6.4-0.4c2.9-0.6,5.8-1.5,8.6-2.5c3-1.1,5-3.3,6.4-6.1
		c2.7-5.1,5.8-9.8,10.9-13c1.8-1.2,3.3-3.3,4.3-5.3c2.2-4.2,6.6-5.7,10.5-3c2.8,1.9,5.7,3.6,9.2,3c1.8-0.3,3.7-0.9,5.4-1.6
		c2.4-0.9,4.6-0.2,6.5,0.9c2.9,1.7,4.8,4.1,5.3,7.8c0.4,2.7,1.5,5.3,2.6,7.8c1.2,2.8,6.6,3.1,8.7,1.5c4.7-3.7,9.9-3.7,15.4-2.1
		c4.3,1.3,8.8,2.4,13.2,3.3c1.6,0.3,3.3,0.2,5,0.1c2.4-0.1,3.9,1,4.2,3.5C226.6-43.5,226.7-43.3,226.6-43.4z M154.3,126.4
		c-1.1-2.2-2-4.1-2.9-6c-12-24.2-24-48.5-35.9-72.7c-4-8-7.9-16-11.9-24c-0.5-1.1-1.3-1.7-2.3-1.2c-0.6,0.3-1,1.2-1.3,1.9
		c-0.3,0.7-0.3,1.6-0.4,2.4c-1.1,7.5-2.1,15-3.2,22.4c-1,7.3-2.1,14.6-3.1,21.9c-1,7.4-2.1,14.7-3.1,22.1
		c-1.2,8.2-2.4,16.4-3.5,24.6c-1.2,8.4-2.4,16.9-3.6,25.3c-0.3,2.3-0.6,4.7-0.9,7.2c3.8,0,7.2-0.1,10.7,0.1c2,0.1,2.5-0.8,2.7-2.5
		c0.7-6,1.5-11.9,2.3-17.9c0.9-7,1.9-14,2.8-21c0.9-6.8,1.8-13.6,2.7-20.5c0.9-7,1.9-14,2.8-21c0.3-2.5,0.7-5.1,1.1-8.1
		c0.8,1.7,1.4,3,2.1,4.3c14,28.2,28,56.4,42,84.6c0.6,1.1,1,2.1,2.6,2.1c1.6,0,2.6-0.5,3.1-2c0.2-0.7,0.6-1.3,1-2
		c13.9-28,27.7-56.1,41.6-84.1c0.3-0.6,0.6-1.1,1.1-2c0.7,5,1.4,9.5,2,14c1,7.8,2,15.6,3.1,23.4c1.2,8.6,2.4,17.3,3.6,25.9
		c1.2,8.5,2.3,16.9,3.4,25.4c0.1,1.1,0.7,1.4,1.8,1.4c3.5,0,6.9,0,10.4,0c0.4,0,0.8-0.1,1.4-0.2c-0.3-2.3-0.7-4.5-1-6.6
		c-1.3-9.1-2.5-18.1-3.8-27.2c-1.5-10.7-3.1-21.4-4.7-32.1c-1.4-9.9-2.8-19.8-4.2-29.7c-1.4-10-2.9-20.1-4.4-30.1
		c-0.1-0.7-0.7-1.6-1.3-1.8c-1-0.4-1.8,0.2-2.3,1.3c-3.2,6.7-6.5,13.3-9.7,19.9c-12.4,25.2-24.7,50.4-37.1,75.6
		C156.8,121.5,155.6,123.8,154.3,126.4z M153.9,71c-1,0-2,0-3,0c-2.5,0-4,1.5-4,4c0,1.7,0,3.4,0,5.2c0.1,2.2,1.5,3.7,3.7,3.7
		c2.2,0,4.4,0.1,6.6,0c2.1-0.1,3.6-1.5,3.6-3.6c0.1-1.8,0-3.7,0-5.5c-0.1-2.2-1.5-3.6-3.7-3.7C156.1,71,155,71,153.9,71z"/>
	<path class="st1" d="M154.3,126.4c1.3-2.6,2.4-4.9,3.6-7.2C170.3,94,182.6,68.8,195,43.6c3.3-6.6,6.5-13.3,9.7-19.9
		c0.5-1.1,1.3-1.7,2.3-1.3c0.6,0.3,1.2,1.2,1.3,1.8c1.5,10,3,20,4.4,30.1c1.4,9.9,2.8,19.8,4.2,29.7c1.5,10.7,3.1,21.4,4.7,32.1
		c1.3,9.1,2.5,18.1,3.8,27.2c0.3,2.2,0.6,4.4,1,6.6c-0.6,0.1-1,0.2-1.4,0.2c-3.5,0-6.9,0-10.4,0c-1,0-1.6-0.2-1.8-1.4
		c-1.1-8.5-2.2-16.9-3.4-25.4c-1.2-8.6-2.4-17.3-3.6-25.9c-1.1-7.8-2-15.6-3.1-23.4c-0.6-4.5-1.3-9-2-14c-0.5,0.9-0.8,1.4-1.1,2
		c-13.9,28-27.7,56.1-41.6,84.1c-0.3,0.7-0.7,1.3-1,2c-0.5,1.5-1.5,1.9-3.1,2c-1.6,0-2.1-0.9-2.6-2.1c-14-28.2-28-56.4-42-84.6
		c-0.6-1.3-1.2-2.5-2.1-4.3c-0.4,3-0.8,5.5-1.1,8.1c-1,7-1.9,14-2.8,21c-0.9,6.8-1.8,13.6-2.7,20.4c-0.9,7-1.9,14-2.8,21
		c-0.8,6-1.6,11.9-2.3,17.9c-0.2,1.7-0.7,2.6-2.7,2.5c-3.4-0.2-6.9-0.1-10.7-0.1c0.3-2.5,0.6-4.9,0.9-7.2c1.2-8.4,2.4-16.9,3.6-25.3
		c1.2-8.2,2.4-16.4,3.5-24.6c1-7.4,2.1-14.7,3.1-22.1c1-7.3,2.1-14.6,3.1-21.9c1.1-7.5,2.1-15,3.2-22.4c0.1-0.8,0.1-1.6,0.4-2.4
		c0.3-0.7,0.7-1.6,1.3-1.9c1-0.4,1.8,0.2,2.3,1.2c3.9,8,7.9,16,11.9,24c12,24.2,24,48.5,35.9,72.7
		C152.3,122.2,153.3,124.2,154.3,126.4z"/>
	<path class="st1" d="M153.9,71c1.1,0,2.2,0,3.3,0c2.2,0.1,3.7,1.5,3.7,3.7c0,1.8,0,3.7,0,5.5c-0.1,2.1-1.5,3.6-3.6,3.6
		c-2.2,0.1-4.4,0-6.6,0c-2.2,0-3.7-1.5-3.7-3.7c0-1.7,0-3.4,0-5.2c0-2.5,1.5-4,4-4C151.9,71,152.9,71,153.9,71z"/>
</g>
</svg>
